HIERARCHY
ROOT Hips
{
	OFFSET 0.00000 0.00000 0.00000
	CHANNELS 6 Xposition Yposition Zposition Zrotation Yrotation Xrotation 
	JOINT LHipJoint
	{
		OFFSET 0 0 0
		CHANNELS 3 Zrotation Yrotation Xrotation
		JOINT LeftHip
		{
			OFFSET 1.59715 -1.91394 0.36268
			CHANNELS 3 Zrotation Yrotation Xrotation
			JOINT LeftKnee
			{
				OFFSET 2.53886 -6.97546 0.00000
				CHANNELS 3 Zrotation Yrotation Xrotation
				JOINT LeftAnkle
				{
					OFFSET 2.77084 -7.61284 0.00000
					CHANNELS 3 Zrotation Yrotation Xrotation
					JOINT LeftToe
					{
						OFFSET 0.19855 -0.54550 2.06057
						CHANNELS 3 Zrotation Yrotation Xrotation
						End Site
						{
							OFFSET 0.00000 -0.00000 1.07182
						}
					}
				}
			}
		}
	}
	JOINT RHipJoint
	{
		OFFSET 0 0 0
		CHANNELS 3 Zrotation Yrotation Xrotation
		JOINT RightHip
		{
			OFFSET -1.71086 -1.91394 0.36268
			CHANNELS 3 Zrotation Yrotation Xrotation
			JOINT RightKnee
			{
				OFFSET -2.59448 -7.12828 0.00000
				CHANNELS 3 Zrotation Yrotation Xrotation
				JOINT RightAnkle
				{
					OFFSET -2.80237 -7.69945 0.00000
					CHANNELS 3 Zrotation Yrotation Xrotation
					JOINT RightToe
					{
						OFFSET -0.18280 -0.50224 2.06614
						CHANNELS 3 Zrotation Yrotation Xrotation
						End Site
						{
							OFFSET -0.00000 -0.00000 1.07055
						}
					}
				}
			}
		}
	}
	JOINT lowerback
	{
		OFFSET 0 0 0
		CHANNELS 3 Zrotation Yrotation Xrotation
		JOINT Chest
		{
			OFFSET 0.04838 1.91536 -0.09733
			CHANNELS 3 Zrotation Yrotation Xrotation
			JOINT Chest2
			{
				OFFSET 0.04097 1.92183 -0.02751
				CHANNELS 3 Zrotation Yrotation Xrotation
				JOINT lowerneck
				{
					OFFSET 0 0 0
					CHANNELS 3 Zrotation Yrotation Xrotation
					JOINT Neck
					{
						OFFSET 0.18766 3.12816 0.13727
						CHANNELS 3 Zrotation Yrotation Xrotation
						JOINT Head
						{
							OFFSET -0.11178 3.16074 0.02732
							CHANNELS 3 Zrotation Yrotation Xrotation
							End Site
							{
								OFFSET 0.47685 1.04189 0.57898
							}
						}
					}
				}
				JOINT LeftCollar
				{
					OFFSET 0 0 0
					CHANNELS 3 Zrotation Yrotation Xrotation
					JOINT LeftShoulder
					{
						OFFSET 3.49325 0.99827 -0.10681
CHANNELS 3 Zrotation Xrotation Yrotation
						JOINT LeftElbow
						{
OFFSET 0 -5.128420 0.000000
CHANNELS 3 Zrotation Xrotation Yrotation
							JOINT LeftWrist
							{
OFFSET 0 -3.473960 0.000000
CHANNELS 3 Zrotation Xrotation Yrotation
								JOINT lhand
								{
									OFFSET 0 0 0
CHANNELS 3 Zrotation Xrotation Yrotation
									JOINT LFingers
									{
OFFSET 0 -0.728610 0.000000
CHANNELS 3 Zrotation Xrotation Yrotation
										End Site
										{
OFFSET 0 -0.587420 0.000000
										}
									}
								}
								JOINT LThumb
								{
OFFSET 0 0.000000 0.000000
CHANNELS 3 Zrotation Xrotation Yrotation
									End Site
									{
OFFSET 0 -0.596390 0.596390
									}
								}
							}
						}
					}
				}
				JOINT RightCollar
				{
					OFFSET 0 0 0
					CHANNELS 3 Zrotation Yrotation Xrotation
					JOINT RightShoulder
					{
						OFFSET -3.23261 1.50670 -0.18692
CHANNELS 3 Zrotation Xrotation Yrotation
						JOINT RightElbow
						{
OFFSET 0 -5.484770 -0.000000
CHANNELS 3 Zrotation Xrotation Yrotation
							JOINT RightWrist
							{
OFFSET 0 -3.478560 0.000000
CHANNELS 3 Zrotation Xrotation Yrotation
								JOINT rhand
								{
									OFFSET 0 0 0
CHANNELS 3 Zrotation Xrotation Yrotation
									JOINT RFingers
									{
OFFSET 0 -0.709970 0.000000
CHANNELS 3 Zrotation Xrotation Yrotation
										End Site
										{
OFFSET 0 -0.572400 0.000000
										}
									}
								}
								JOINT RThumb
								{
OFFSET 0 0.000000 0.000000
CHANNELS 3 Zrotation Xrotation Yrotation
									End Site
									{
OFFSET 0 -0.581140 0.581140
									}
								}
							}
						}
					}
				}
			}
		}
	}
}
MOTION
Frames: 10
Frame Time: 0.008333333333333333
-9.913100 18.124800 -0.422100 -5.833100 -83.275300 9.447200 0.000000 0.000000 0.000000 -2.321900 0.997000 -59.431000 34.249900 14.181700 136.029700 -0.035300 -16.732100 -11.404200 0.064000 1.631800 4.489200 0.000000 0.000000 0.000000 29.119100 0.228300 -23.636600 -5.014400 -13.400000 40.884700 -0.517300 -2.542000 -14.749800 -2.155300 -9.182400 26.367500 4.721200 2.232100 16.200800 2.999200 3.870000 1.855300 -0.303100 1.726000 -6.988000 -1.832800 4.260500 -10.525100 -10.515600 9.133600 35.781500 -2.738200 1.868200 14.653500 0.000000 0.000000 0.000000 -4.521100 10.412500 -11.179400 26.693200 -37.885000 9.310100 18.246100 16.489600 -26.852600 0.000000 0.000000 0.000000 -7.125000 0.000000 0.000000 -13.212000 57.550400 4.108000 0.000000 0.000000 0.000000 -5.098900 6.625600 16.688300 -21.411800 -32.305900 -6.268600 -31.949200 -18.206100 -13.223400 0.000000 0.000000 0.000000 7.125000 0.000000 -0.000000 -3.131800 14.517300 -2.250200
-10.742172 18.373514 -0.403838 -10.331760 -84.416565 13.003756 0.000000 0.000000 0.000000 -5.995924 -12.579594 -56.130034 26.014419 19.105813 107.842983 0.043659 -10.218038 -7.854351 0.084922 1.879126 5.171671 0.000000 0.000000 0.000000 30.413386 0.001126 -17.604852 -4.245105 -12.479624 37.450608 -0.291032 -5.966477 -14.113947 -1.934392 -8.724273 24.939107 4.729413 3.302919 15.909563 3.043923 5.236426 2.195135 -0.518690 2.404719 -6.417182 -0.936875 5.564422 -9.373115 -11.480670 11.060359 34.676460 -2.966332 2.824083 14.149720 0.000000 0.000000 0.000000 -2.523918 9.557373 -13.006418 26.257233 -37.461632 9.043618 16.535933 17.322701 -26.052669 0.000000 0.000000 0.000000 -7.125000 0.000000 0.000000 -14.556534 56.402093 4.130988 0.000000 0.000000 0.000000 -5.524967 5.660211 15.502914 -20.078517 -30.736741 -5.571402 -31.633005 -17.099655 -13.726300 0.000000 0.000000 0.000000 7.125000 0.000000 0.000000 -2.860017 13.986887 -2.086649
-11.724308 17.985000 -0.349860 -35.886534 -85.131154 38.725380 0.000000 0.000000 0.000000 -12.095653 -12.578815 -40.964949 9.287175 16.983031 57.069494 0.026367 1.171801 -3.788116 0.001596 -0.081730 -0.224693 0.000000 0.000000 0.000000 32.042553 -2.258947 -17.493691 -5.363417 -13.781698 42.370089 -0.726145 -1.893715 -16.890516 -1.313812 -7.258775 20.484967 5.928542 3.951620 13.740844 3.239008 6.185493 1.683505 -1.016747 2.872931 -5.630840 -0.050496 7.955169 -8.104951 -12.357421 14.651235 34.864557 -2.982830 4.412319 14.448870 0.000000 0.000000 0.000000 -2.795794 9.340796 -6.925288 26.715696 -37.906667 9.323915 15.476347 14.118607 -27.667409 0.000000 0.000000 0.000000 -7.125000 0.000000 0.000000 -16.595152 57.747634 5.274682 0.000000 0.000000 0.000000 -6.144792 4.544332 17.049373 -20.291970 -30.992417 -5.680928 -31.127195 -16.509987 -13.695659 0.000000 0.000000 0.000000 7.125000 0.000000 0.000000 -2.522409 14.100091 -1.833770
-12.726490 17.613834 -0.417160 -25.585801 -81.161789 27.532322 0.000000 0.000000 0.000000 -18.429712 -9.298250 -29.645586 5.060066 13.451002 41.081268 0.045381 7.445427 -11.558660 0.053186 1.476363 4.060721 0.000000 0.000000 0.000000 31.798412 -8.574069 -21.460037 -8.208824 -16.268473 53.307859 -0.529910 3.786487 -12.977916 -1.566549 -7.885034 22.372163 4.052189 3.436804 12.243605 3.456535 5.227655 1.026593 0.479216 2.463534 -5.738391 1.590394 9.717127 -6.791396 -12.841076 17.072726 34.724534 -3.122244 5.688153 14.561052 0.000000 0.000000 0.000000 -2.640919 9.151999 -4.054611 23.570869 -34.706109 7.461213 15.191586 13.839382 -29.175249 0.000000 0.000000 0.000000 -7.125000 0.000000 0.000000 -17.882320 59.128413 6.298494 0.000000 0.000000 0.000000 -5.605538 4.701841 14.950804 -21.153138 -32.006629 -6.130883 -31.181708 -17.431510 -13.793622 0.000000 0.000000 0.000000 7.125000 0.000000 0.000000 -2.548193 13.979637 -1.858845
-13.343967 17.517932 -0.669920 -8.282078 -72.532382 9.166943 0.000000 0.000000 0.000000 -19.237728 -12.990739 -25.649780 5.042805 13.431793 41.007211 0.444541 1.541722 -13.261092 0.108835 -0.832893 -2.303301 0.000000 0.000000 0.000000 26.993100 -5.053205 -29.434040 -13.708507 -19.022975 71.312017 0.030187 4.243072 -1.517479 -0.824313 -5.783738 16.160635 3.063587 2.938403 12.866938 2.352623 4.393376 1.511500 -0.010788 2.080614 -5.567439 0.575267 10.246808 -5.922911 -13.612293 18.284028 34.078006 -3.090377 6.130697 14.220498 0.000000 0.000000 0.000000 -2.667704 4.838837 -3.383053 21.232293 -32.098371 6.173006 12.016401 14.766360 -30.269627 0.000000 0.000000 0.000000 -7.125000 0.000000 0.000000 -22.011095 59.430250 7.994957 0.000000 0.000000 0.000000 -3.954827 5.251558 13.043741 -20.809300 -31.605012 -5.949682 -31.455293 -20.061664 -12.593998 0.000000 0.000000 0.000000 7.125000 0.000000 0.000000 -2.867005 15.315979 -2.010391
-13.886003 17.614480 -1.195943 -2.516622 -55.528509 2.730165 0.000000 0.000000 0.000000 -19.583058 -18.570770 -21.149034 4.257504 12.495283 37.507636 0.308285 -8.824497 -10.893200 0.104193 2.079571 5.725771 0.000000 0.000000 0.000000 23.344343 4.081510 -26.994376 -13.180128 -18.845648 69.683410 -0.436896 -4.147303 -14.701260 -1.816489 -8.443716 24.087939 2.658509 2.247422 12.803442 1.605062 3.376536 1.926847 -0.382092 1.602742 -5.088017 0.577466 9.662367 -6.529934 -12.412823 17.685965 35.898064 -2.698766 5.958758 14.993684 0.000000 0.000000 0.000000 -1.629651 4.566309 -11.878464 23.220576 -34.329022 7.262333 13.658102 13.268799 -27.164939 0.000000 0.000000 0.000000 -7.125000 0.000000 0.000000 -18.158744 56.881510 5.409392 0.000000 0.000000 0.000000 -3.669231 7.354350 15.790873 -20.275754 -30.973057 -5.672633 -30.841997 -17.999607 -13.927055 0.000000 0.000000 0.000000 7.125000 0.000000 0.000000 -2.303908 13.879050 -1.685899
-14.424503 17.543834 -1.915275 -3.200418 -32.267701 3.790257 0.000000 0.000000 0.000000 -15.999485 -26.497492 -23.089170 4.169061 12.382001 37.097137 -1.330098 -22.822556 -3.514740 1.376159 7.423589 20.976487 0.000000 0.000000 0.000000 22.060780 18.071590 -17.271693 -7.933910 -16.068959 52.321863 -0.732637 10.846506 -15.979836 -0.634499 -5.086098 14.156414 3.717016 1.099123 12.218929 3.024242 2.090657 1.437705 0.733719 0.963029 -5.324435 0.470132 8.560623 -6.046830 -13.346724 16.857163 36.011269 -3.197513 5.660845 14.982115 0.000000 0.000000 0.000000 -2.956505 4.018098 -12.897970 23.449887 -34.577013 7.391984 14.412945 14.059516 -29.196473 0.000000 0.000000 0.000000 -7.125000 0.000000 0.000000 -18.716216 58.972586 6.534449 0.000000 0.000000 0.000000 -4.590408 9.325055 13.777712 -19.681413 -30.256543 -5.369917 -31.927137 -19.428533 -13.077050 0.000000 0.000000 0.000000 7.125000 0.000000 0.000000 -3.133701 14.689414 -2.240063
-14.824704 17.505337 -2.764983 -3.982949 -12.973254 5.245360 0.000000 0.000000 0.000000 -11.342071 -33.329657 -27.057051 3.538289 11.519175 34.051589 -2.582348 -28.782701 0.435900 0.086477 1.825826 5.026235 0.000000 0.000000 0.000000 24.153027 21.473902 -13.090076 -5.633282 -14.063145 43.491242 -0.457365 18.459113 -16.770074 -2.256574 -9.380618 26.993789 5.669731 0.948389 12.341088 3.802310 2.191494 1.840274 0.442262 0.997429 -4.925423 -0.041388 7.432445 -7.187553 -13.534589 15.985106 36.559796 -3.263837 5.261252 15.412135 0.000000 0.000000 0.000000 -2.784656 3.831144 -11.824060 24.799432 -35.998305 8.171716 16.296514 13.676187 -30.045677 0.000000 0.000000 0.000000 -7.125000 0.000000 0.000000 -17.321654 60.213681 6.545332 0.000000 0.000000 0.000000 -5.893061 6.723412 12.702394 -19.203028 -29.670095 -5.130973 -32.760738 -18.127603 -13.460377 0.000000 0.000000 0.000000 7.125000 0.000000 0.000000 -3.651410 14.115621 -2.656046
-15.140166 17.576951 -3.613605 -4.250658 0.857596 7.006970 0.000000 0.000000 0.000000 -7.787544 -35.749092 -31.727326 3.086673 10.834056 31.722107 -0.173316 -16.402331 -9.678124 0.130139 2.322385 6.397777 0.000000 0.000000 0.000000 25.572409 15.248747 -18.240283 -4.938670 -13.314318 40.556864 -1.023703 12.536955 -18.852739 -2.268767 -9.404736 27.069848 6.331044 1.184401 12.292965 4.329474 2.591588 2.405129 0.570293 1.217465 -4.286219 -0.311257 6.709864 -8.348037 -13.306182 15.191439 36.150067 -3.149110 4.988845 15.328316 0.000000 0.000000 0.000000 -3.279139 3.378774 -5.679827 24.400938 -35.585347 7.938643 16.063999 14.435219 -30.752717 0.000000 0.000000 0.000000 -7.125000 0.000000 0.000000 -18.097775 60.830949 7.116265 0.000000 0.000000 0.000000 -7.896356 3.639779 11.769109 -21.313424 -32.192313 -6.216106 -31.689290 -18.029659 -13.373206 0.000000 0.000000 0.000000 7.125000 0.000000 0.000000 -2.938773 14.384212 -2.119367
-15.233505 17.651996 -4.265575 -2.914170 13.154112 6.836310 0.000000 0.000000 0.000000 -9.174502 -36.285260 -31.439058 4.256920 12.494609 37.504972 0.059635 -13.503959 -10.196968 0.344276 3.769649 10.429651 0.000000 0.000000 0.000000 24.463713 13.170606 -20.852132 -4.980610 -13.361969 40.739037 -1.348768 4.708353 -20.913656 -1.849423 -8.542890 24.377109 7.004835 0.580377 12.638710 4.161450 1.914540 2.644712 0.118260 0.891083 -4.217843 -1.287093 5.499372 -8.234759 -12.368448 13.599135 36.861851 -2.849307 4.338943 15.295593 0.000000 0.000000 0.000000 -4.019511 3.783884 -1.753556 22.413287 -33.440994 6.812179 16.189848 15.267090 -31.527409 0.000000 0.000000 0.000000 -7.125000 0.000000 0.000000 -18.570012 61.594174 7.646458 0.000000 0.000000 0.000000 -8.764597 3.106799 9.887301 -22.157710 -33.154723 -6.671951 -32.050499 -19.363724 -13.054912 0.000000 0.000000 0.000000 7.125000 0.000000 0.000000 -3.219871 14.696244 -2.301434
